<?xml version="1.0" encoding="UTF-8"?>
<svg version="1.1" xmlns="http://www.w3.org/2000/svg" width="512" height="512">
<path d="M0 0 C1.12921875 0.36222656 2.2584375 0.72445312 3.421875 1.09765625 C16.44195172 5.69206131 27.764683 12.78028035 38 22 C38.77988281 22.69738281 39.55976563 23.39476563 40.36328125 24.11328125 C56.56765434 39.42207586 69.32638613 63.85965623 70.12025452 86.41696167 C70.11803391 87.66494537 70.11581329 88.91292908 70.11352539 90.19873047 C70.11367142 90.89211014 70.11381744 91.58548981 70.1139679 92.29988098 C70.11327596 94.57234926 70.1055175 96.84473369 70.09765625 99.1171875 C70.09578951 100.70044917 70.09436682 102.28371142 70.09336853 103.86697388 C70.08956349 108.01962906 70.07975051 112.17224886 70.06866455 116.32489014 C70.05840703 120.56815106 70.05386163 124.81141773 70.04882812 129.0546875 C70.03812633 137.36980784 70.02107424 145.68489951 70 154 C71.23547577 153.99347412 71.23547577 153.99347412 72.49591064 153.98681641 C74.11683624 153.98174072 74.11683624 153.98174072 75.77050781 153.9765625 C77.37723358 153.97003662 77.37723358 153.97003662 79.01641846 153.96337891 C93.42875234 154.14027886 108.76224045 160.81279761 119.10546875 170.859375 C123.78830243 176.15049429 128.57125626 182.3209547 131 189 C130.75 192.0625 130.75 192.0625 130 195 C128.9864231 198.61125852 128.9864231 198.61125852 130 202 C131.97411613 202.00879936 131.97411613 202.00879936 133.9881134 202.01777649 C146.41994853 202.07510845 158.8516105 202.14792484 171.28326893 202.23571491 C177.67377767 202.2803509 184.06422364 202.31962208 190.45483398 202.34643555 C196.62764552 202.37253585 202.80021467 202.41298614 208.9728756 202.46318626 C211.32222149 202.47980947 213.67160927 202.49135194 216.02100563 202.49761391 C219.32391103 202.50730436 222.6262026 202.53542329 225.92895508 202.56762695 C227.37042656 202.56547432 227.37042656 202.56547432 228.84101868 202.5632782 C240.62217942 202.72463733 251.65739803 205.85457737 260.26171875 214.19140625 C270.42759885 225.89814063 270.60627693 238.84029414 270.53125 253.5625 C270.53395116 255.44474487 270.53783874 257.32698837 270.54284668 259.20922852 C270.54871241 263.13604135 270.54027385 267.06248789 270.52148438 270.98925781 C270.49869663 275.99218411 270.51183553 280.99425171 270.53577423 285.99714661 C270.55031178 289.87852304 270.54558998 293.75969993 270.53526306 297.64108276 C270.5326177 299.48444727 270.53578728 301.32783062 270.54518127 303.1711731 C270.60280885 317.65302393 269.57752561 330.05247863 259 341 C248.31336354 351.52186454 234.42920926 351.50076568 220.36576843 351.45318604 C218.09149793 351.43276714 215.81723138 351.41190329 213.54296875 351.390625 C211.18500755 351.38315246 208.82704009 351.37746433 206.46907043 351.37347412 C200.30246437 351.35829764 194.13624304 351.31908526 187.9697876 351.2746582 C181.66155194 351.23353236 175.35325333 351.2154263 169.04492188 351.1953125 C156.69644677 351.15258278 144.34825554 351.08442924 132 351 C132 352.98 132 354.96 132 357 C132.99 357.33 133.98 357.66 135 358 C137.10747055 362.2149411 136.22958344 367.74554594 136.25 372.375 C136.2809375 374.07076172 136.2809375 374.07076172 136.3125 375.80078125 C136.39314886 393.40239581 130.34656911 408.36177965 118 421 C100.85738462 435.8823298 82.37327736 437.45463725 60.70898438 437.38818359 C58.47202804 437.39225481 56.23507372 437.39759977 53.99812317 437.40411377 C47.95477376 437.41772761 41.91157893 437.41251325 35.86822701 437.40297651 C29.52555061 437.3953491 23.18288691 437.40243406 16.84020996 437.40713501 C5.5105582 437.412932 -5.81901552 437.40364449 -17.14865166 437.388357 C-27.39715004 437.37495587 -37.64554643 437.37728461 -47.89404297 437.39111328 C-59.82838344 437.40720945 -71.76266211 437.41312178 -83.69701719 437.40427649 C-90.00236679 437.39961402 -96.30764632 437.39893578 -102.61299133 437.40888596 C-108.5425594 437.41759055 -114.47193602 437.41147003 -120.40148354 437.39420319 C-122.56975805 437.39025697 -124.73804885 437.39134017 -126.90631676 437.39799118 C-147.46300131 437.45520464 -165.41038901 435.06502855 -180.93798828 420.32568359 C-191.7736434 409.4458464 -198.15970942 394.8680057 -198.14044189 379.52536011 C-198.14341302 378.78155913 -198.14638414 378.03775814 -198.1494453 377.27141774 C-198.15810398 374.78363551 -198.15963815 372.29590156 -198.16113281 369.80810547 C-198.16576307 368.02228188 -198.17078801 366.23645928 -198.17617798 364.45063782 C-198.1892858 359.60117679 -198.19574402 354.7517296 -198.20018864 349.90225363 C-198.20312256 346.86971063 -198.20722802 343.83717138 -198.21169281 340.80463028 C-198.22536477 331.30857355 -198.23503236 321.81252543 -198.2388947 312.31645954 C-198.24337193 301.36982714 -198.26090557 290.42331983 -198.2898953 279.47672546 C-198.31154604 271.00603191 -198.32160083 262.53537347 -198.32293582 254.06465256 C-198.32398161 249.01007215 -198.32984094 243.95560937 -198.34775543 238.9010582 C-198.36429436 234.14203714 -198.36636346 229.38322139 -198.35761642 224.62418175 C-198.3568491 222.88400534 -198.36114824 221.14381762 -198.37107468 219.40366936 C-198.47285852 200.43783495 -194.17443423 184.3004754 -180.6640625 170.40234375 C-168.94717705 159.83653063 -153.92945223 153.82571993 -138.16015625 153.95703125 C-136.70234741 153.96633667 -136.70234741 153.96633667 -135.21508789 153.97583008 C-134.48410889 153.98380615 -133.75312988 153.99178223 -133 154 C-133.00444122 153.24404037 -133.00888245 152.48808075 -133.01345825 151.70921326 C-133.05385339 144.51769908 -133.08414395 137.3262414 -133.10362434 130.1346426 C-133.11397667 126.43907696 -133.12797541 122.74360656 -133.15087891 119.0480957 C-133.17291765 115.46892958 -133.18463253 111.88985392 -133.18975449 108.31062508 C-133.19514409 106.30865108 -133.21070459 104.30671251 -133.22659302 102.30479431 C-133.22983771 75.23728174 -125.89039976 49.09684546 -107 29 C-105.77216797 27.63681641 -105.77216797 27.63681641 -104.51953125 26.24609375 C-78.39787232 -1.49611123 -36.21963229 -11.95561456 0 0 Z M-55 76 C-62.49811198 86.32072688 -63.29690443 95.44963973 -63.1953125 107.90625 C-63.19329834 109.07768555 -63.19128418 110.24912109 -63.18920898 111.45605469 C-63.17879759 115.80407667 -63.15087525 120.15204254 -63.125 124.5 C-63.08375 134.235 -63.0425 143.97 -63 154 C-41.88 154 -20.76 154 1 154 C1.061875 140.201875 1.061875 140.201875 1.125 126.125 C1.14320801 123.24023926 1.16141602 120.35547852 1.18017578 117.38330078 C1.18602262 115.07063991 1.19111772 112.75797696 1.1953125 110.4453125 C1.20554443 109.26573975 1.21577637 108.08616699 1.22631836 106.87084961 C1.22888496 94.59480936 -0.08893865 83.95450049 -8.75 74.75 C-16.35850209 67.51125689 -24.02656457 65.6268573 -34.3515625 65.72265625 C-42.5487498 66.34578291 -49.57878719 69.79675405 -55 76 Z " fill="#22A6FC" transform="translate(242,69)"/>
<path d="M0 0 C10.04883529 -0.04230644 20.09766878 -0.07457999 30.14656246 -0.09937394 C36.05838058 -0.11443718 41.97007489 -0.1346474 47.88182157 -0.16778237 C53.35185125 -0.1983329 58.82174183 -0.21478022 64.29185218 -0.22042304 C66.28312937 -0.2249846 68.27440285 -0.23470251 70.26562566 -0.25010949 C85.35346244 -0.36277795 99.39352403 0.13888494 110.87970632 11.26798385 C121.04558642 22.97471824 121.2242645 35.91687174 121.14923757 50.6390776 C121.15193873 52.52132247 121.15582631 54.40356597 121.16083425 56.28580612 C121.16669998 60.21261895 121.15826142 64.13906549 121.13947195 68.06583542 C121.11668421 73.06876172 121.1298231 78.07082932 121.1537618 83.07372421 C121.16829936 86.95510064 121.16357755 90.83627753 121.15325063 94.71766037 C121.15060527 96.56102488 121.15377485 98.40440823 121.16316885 100.2477507 C121.22079642 114.72960153 120.19551319 127.12905624 109.61798757 138.0765776 C99.33767241 148.1983857 86.0553448 148.57682855 72.48218435 148.49649948 C70.36810575 148.47118774 68.25403113 148.44554194 66.13996023 148.41959518 C63.88342882 148.40698885 61.62688618 148.3962728 59.37033743 148.38729233 C54.53420642 148.36458311 49.69837333 148.32971966 44.86239141 148.285541 C37.2143581 148.21685586 29.56640193 148.18238031 21.91812795 148.15364975 C11.19707268 148.11068301 0.47613723 148.05867355 -10.2448054 147.99381393 C-10.9234591 147.98971575 -11.6021128 147.98561757 -12.30133177 147.98139521 C-19.88087252 147.93525661 -27.46037416 147.88497384 -35.03984934 147.82908005 C-35.72243208 147.82405206 -36.40501482 147.81902408 -37.10828189 147.81384374 C-37.7902746 147.80881719 -38.47226731 147.80379063 -39.17492646 147.79861176 C-40.55043294 147.78847858 -41.92593946 147.77835066 -43.30144602 147.76822799 C-43.98108178 147.76321928 -44.66071753 147.75821056 -45.36094831 147.75305007 C-56.69875242 147.67022208 -68.03645626 147.61493628 -79.37452763 147.58063948 C-86.97746687 147.55604153 -94.57929178 147.49954307 -102.1818369 147.41925722 C-106.90649674 147.3766139 -111.63090517 147.36319092 -116.35574061 147.35799736 C-118.54597108 147.34968278 -120.73619403 147.32930569 -122.92618662 147.29597229 C-125.91704113 147.25215535 -128.9049316 147.25161877 -131.89602 147.26171249 C-132.76168066 147.23859412 -133.62734132 147.21547575 -134.51923412 147.19165683 C-139.34504289 147.26024135 -141.78261818 147.96742439 -145.2444182 151.42828792 C-146.29108448 152.64369469 -147.33695968 153.85978318 -148.38201243 155.0765776 C-149.59263059 156.16016452 -150.82013792 157.22541486 -152.06951243 158.2640776 C-157.80913979 163.2185151 -163.05891265 168.68447468 -168.38201243 174.0765776 C-180.39545608 186.24575108 -180.39545608 186.24575108 -186.74627024 191.66349167 C-188.86007356 193.48956534 -190.81451214 195.44564874 -192.75701243 197.4515776 C-197.13642195 201.9705699 -197.13642195 201.9705699 -201.31951243 202.3265776 C-204.38201243 202.0765776 -204.38201243 202.0765776 -206.05213267 200.88057846 C-207.83345799 198.46418526 -207.74428513 196.94945372 -207.7225886 193.96256393 C-207.72236201 192.92171142 -207.72213541 191.88085891 -207.72190195 190.80846542 C-207.7064181 189.68651275 -207.69093424 188.56456009 -207.67498118 187.40860885 C-207.67073633 186.25865936 -207.66649149 185.10870987 -207.66211802 183.92391342 C-207.64530432 180.24539819 -207.6076462 176.56742768 -207.56951243 172.8890776 C-207.55446911 170.39754905 -207.5407801 167.90601192 -207.5284968 165.41446823 C-207.49539195 159.30165167 -207.44516548 153.18915355 -207.38201243 147.0765776 C-208.48077708 147.09752487 -209.57954172 147.11847214 -210.71160227 147.14005417 C-214.83028217 147.21304588 -218.94890619 147.25859 -223.06804758 147.29630417 C-224.84288532 147.316286 -226.61765836 147.34348116 -228.39226633 147.37833542 C-247.39699033 147.74195985 -247.39699033 147.74195985 -255.38201243 143.0765776 C-256.27275461 142.56997604 -257.1634968 142.06337448 -258.08123118 141.54142135 C-266.04109704 135.42686821 -271.03575128 127.84645523 -273.38201243 118.0765776 C-273.65785158 115.13863444 -273.675918 112.22014604 -273.67253977 109.2706694 C-273.67925699 108.41764236 -273.68597422 107.56461532 -273.692895 106.68573898 C-273.7118002 103.88236454 -273.71579542 101.07923047 -273.71794993 98.27579635 C-273.7243831 96.31435434 -273.73111184 94.35291327 -273.73812205 92.39147323 C-273.75007616 88.2852647 -273.75380479 84.17914019 -273.7526179 80.07291549 C-273.75241483 74.83094766 -273.77971288 69.58952269 -273.81416231 64.34768337 C-273.83648299 60.29742378 -273.84045385 56.24729377 -273.83939844 52.19697899 C-273.84174677 50.26541979 -273.85052667 48.33385661 -273.86606318 46.40235847 C-273.96493112 32.84164281 -273.35213878 21.3449556 -263.38201243 11.0765776 C-255.14568903 4.19454899 -247.25881727 0.61161996 -236.56015879 0.67785019 C-235.7059361 0.67120336 -234.85171341 0.66455653 -233.97160518 0.65770829 C-231.12285161 0.6391378 -228.27452061 0.6416806 -225.4257136 0.64420456 C-223.37156437 0.63517665 -221.31742052 0.62484692 -219.26328379 0.61332077 C-213.66169632 0.58565456 -208.06021063 0.57643871 -202.45856363 0.5704667 C-196.48145434 0.56098094 -190.5044167 0.53471152 -184.52735239 0.51046127 C-174.38443498 0.47160445 -164.24153569 0.4434988 -154.09856516 0.42301315 C-140.21184072 0.3949659 -126.32522421 0.34925804 -112.43856508 0.29890603 C-90.13163926 0.21860679 -67.82475759 0.163062 -45.51771623 0.12785119 C-30.34503621 0.10380563 -15.17256562 0.0643238 0 0 Z " fill="#FDB54C" transform="translate(391.3820124268532,271.923422396183)"/>
<path d="M0 0 C1.12921875 0.36222656 2.2584375 0.72445312 3.421875 1.09765625 C16.44195172 5.69206131 27.764683 12.78028035 38 22 C38.77988281 22.69738281 39.55976563 23.39476563 40.36328125 24.11328125 C56.56765434 39.42207586 69.32638613 63.85965623 70.12025452 86.41696167 C70.11803391 87.66494537 70.11581329 88.91292908 70.11352539 90.19873047 C70.11367142 90.89211014 70.11381744 91.58548981 70.1139679 92.29988098 C70.11327596 94.57234926 70.1055175 96.84473369 70.09765625 99.1171875 C70.09578951 100.70044917 70.09436682 102.28371142 70.09336853 103.86697388 C70.08956349 108.01962906 70.07975051 112.17224886 70.06866455 116.32489014 C70.05840703 120.56815106 70.05386163 124.81141773 70.04882812 129.0546875 C70.03812633 137.36980784 70.02107424 145.68489951 70 154 C71.23547577 153.99347412 71.23547577 153.99347412 72.49591064 153.98681641 C74.11683624 153.98174072 74.11683624 153.98174072 75.77050781 153.9765625 C77.37723358 153.97003662 77.37723358 153.97003662 79.01641846 153.96337891 C93.42875234 154.14027886 108.76224045 160.81279761 119.10546875 170.859375 C131.09017917 184.40086224 131.09017917 184.40086224 130.9375 192.1875 C130 195 130 195 128.375 196.9375 C124.61212294 198.62089237 122.90455988 198.3897586 119 197 C116.29816754 193.90463977 114.20231522 190.46004769 112 187 C105.91105402 178.60933449 98.02839927 173.54369981 88 171 C87.32232071 170.82697546 86.64464142 170.65395092 85.94642639 170.47568321 C81.86039964 169.81601822 77.84927619 169.8484498 73.71655273 169.84609985 C72.77815237 169.8417176 71.83975201 169.83733535 70.87291527 169.8328203 C67.7264727 169.81945916 64.58005812 169.81325942 61.43359375 169.80712891 C59.17811457 169.79922574 56.92263664 169.79095666 54.66716003 169.78234863 C47.2572856 169.75615041 39.84740559 169.74082182 32.4375 169.7265625 C29.88425696 169.72120166 27.33101396 169.71582415 24.777771 169.71043015 C14.1541594 169.68880346 3.53054912 169.66991726 -7.09307861 169.65880775 C-9.84769698 169.65587836 -12.60231531 169.65291665 -15.35693359 169.64990234 C-16.3838253 169.64878327 -16.3838253 169.64878327 -17.43146229 169.64764158 C-28.50930039 169.63500121 -39.58697751 169.60179328 -50.66474044 169.56010051 C-62.05436391 169.51758768 -73.44387532 169.49450896 -84.8335886 169.48888719 C-91.22186789 169.48523937 -97.6098742 169.4732781 -103.99807739 169.44078445 C-110.0129553 169.41062829 -116.02739615 169.40441922 -122.0423336 169.41616821 C-124.24287231 169.41638832 -126.44343175 169.40813563 -128.64389992 169.39051437 C-145.99561517 169.25919212 -158.73025133 171.0912959 -171.70703125 183.65234375 C-182.74743134 195.53125524 -183.30032482 209.7035998 -183.2746582 225.01928711 C-183.27901085 226.73835979 -183.28419584 228.45743052 -183.29014587 230.17649841 C-183.30348669 234.82527101 -183.30412011 239.47396205 -183.30158257 244.12275004 C-183.30050966 248.01180436 -183.30540435 251.9008424 -183.310188 255.78989321 C-183.32126588 264.96825836 -183.32173008 274.14658258 -183.31567383 283.32495117 C-183.30963297 292.77656956 -183.32195186 302.22803912 -183.3432439 311.67963213 C-183.36088577 319.81154702 -183.36685723 327.94341465 -183.36360615 336.07534796 C-183.3617975 340.92470797 -183.36438783 345.77396178 -183.37832069 350.62330437 C-183.3909368 355.18458434 -183.38891929 359.74563296 -183.37590981 364.30690956 C-183.37355281 365.97493952 -183.37624707 367.64298596 -183.38453293 369.31099701 C-183.42425895 377.93393886 -183.29674114 385.87897691 -180 394 C-179.72059224 394.70637572 -179.44118448 395.41275145 -179.15330982 396.14053249 C-174.36350285 407.58390655 -164.43813395 414.74779501 -153.44648266 419.55371857 C-148.66712804 421.31836596 -144.25624046 421.4249218 -139.20393372 421.39440918 C-137.76798694 421.40354584 -137.76798694 421.40354584 -136.30303115 421.41286707 C-133.11050854 421.42945257 -129.91838673 421.4247275 -126.72583008 421.41992188 C-124.4304971 421.4272649 -122.13516782 421.43585181 -119.83984375 421.44558716 C-113.61440379 421.46779044 -107.38909626 421.4707343 -101.16362214 421.46883965 C-95.96015682 421.46871986 -90.75671946 421.47728768 -85.55326194 421.48561716 C-72.569528 421.50594709 -59.58587036 421.50700303 -46.60212602 421.49981004 C-35.34986738 421.49423971 -24.09783678 421.51504159 -12.8456314 421.54817051 C-1.27057535 421.58198324 10.30436168 421.59659267 21.87946779 421.59245348 C28.36939778 421.59038953 34.85910077 421.59581052 41.34898949 421.62034607 C47.45668575 421.64267382 53.56390919 421.64068471 59.67160797 421.62041855 C61.90600009 421.61701889 64.1404244 421.6220522 66.37477303 421.63640213 C82.41516839 421.73226426 95.85384666 420.78891354 108 409 C116.19950901 400.38553609 120.98315844 389.49522965 121.2109375 377.5859375 C121.23929687 376.57789063 121.26765625 375.56984375 121.296875 374.53125 C121.34914719 372.41945372 121.39336093 370.30744325 121.4296875 368.1953125 C121.47609375 366.68710937 121.47609375 366.68710937 121.5234375 365.1484375 C121.54325684 364.23239746 121.56307617 363.31635742 121.58349609 362.37255859 C122.07284746 359.58503422 122.75840566 358.67804601 125 357 C127.19140625 356.6015625 127.19140625 356.6015625 129.5625 356.625 C130.34753906 356.61726563 131.13257813 356.60953125 131.94140625 356.6015625 C132.96041016 356.79878906 132.96041016 356.79878906 134 357 C137.17532464 361.76298697 136.3280492 366.83667957 136.3125 372.4375 C136.33666992 374.12649414 136.33666992 374.12649414 136.36132812 375.84960938 C136.37143258 393.42125552 130.32581464 408.38302439 118 421 C100.85738462 435.8823298 82.37327736 437.45463725 60.70898438 437.38818359 C58.47202804 437.39225481 56.23507372 437.39759977 53.99812317 437.40411377 C47.95477376 437.41772761 41.91157893 437.41251325 35.86822701 437.40297651 C29.52555061 437.3953491 23.18288691 437.40243406 16.84020996 437.40713501 C5.5105582 437.412932 -5.81901552 437.40364449 -17.14865166 437.388357 C-27.39715004 437.37495587 -37.64554643 437.37728461 -47.89404297 437.39111328 C-59.82838344 437.40720945 -71.76266211 437.41312178 -83.69701719 437.40427649 C-90.00236679 437.39961402 -96.30764632 437.39893578 -102.61299133 437.40888596 C-108.5425594 437.41759055 -114.47193602 437.41147003 -120.40148354 437.39420319 C-122.56975805 437.39025697 -124.73804885 437.39134017 -126.90631676 437.39799118 C-147.46300131 437.45520464 -165.41038901 435.06502855 -180.93798828 420.32568359 C-191.7736434 409.4458464 -198.15970942 394.8680057 -198.14044189 379.52536011 C-198.14341302 378.78155913 -198.14638414 378.03775814 -198.1494453 377.27141774 C-198.15810398 374.78363551 -198.15963815 372.29590156 -198.16113281 369.80810547 C-198.16576307 368.02228188 -198.17078801 366.23645928 -198.17617798 364.45063782 C-198.1892858 359.60117679 -198.19574402 354.7517296 -198.20018864 349.90225363 C-198.20312256 346.86971063 -198.20722802 343.83717138 -198.21169281 340.80463028 C-198.22536477 331.30857355 -198.23503236 321.81252543 -198.2388947 312.31645954 C-198.24337193 301.36982714 -198.26090557 290.42331983 -198.2898953 279.47672546 C-198.31154604 271.00603191 -198.32160083 262.53537347 -198.32293582 254.06465256 C-198.32398161 249.01007215 -198.32984094 243.95560937 -198.34775543 238.9010582 C-198.36429436 234.14203714 -198.36636346 229.38322139 -198.35761642 224.62418175 C-198.3568491 222.88400534 -198.36114824 221.14381762 -198.37107468 219.40366936 C-198.47285852 200.43783495 -194.17443423 184.3004754 -180.6640625 170.40234375 C-168.94717705 159.83653063 -153.92945223 153.82571993 -138.16015625 153.95703125 C-136.70234741 153.96633667 -136.70234741 153.96633667 -135.21508789 153.97583008 C-134.48410889 153.98380615 -133.75312988 153.99178223 -133 154 C-133.00444122 153.24404037 -133.00888245 152.48808075 -133.01345825 151.70921326 C-133.05385339 144.51769908 -133.08414395 137.3262414 -133.10362434 130.1346426 C-133.11397667 126.43907696 -133.12797541 122.74360656 -133.15087891 119.0480957 C-133.17291765 115.46892958 -133.18463253 111.88985392 -133.18975449 108.31062508 C-133.19514409 106.30865108 -133.21070459 104.30671251 -133.22659302 102.30479431 C-133.22983771 75.23728174 -125.89039976 49.09684546 -107 29 C-105.77216797 27.63681641 -105.77216797 27.63681641 -104.51953125 26.24609375 C-78.39787232 -1.49611123 -36.21963229 -11.95561456 0 0 Z M-55 76 C-62.49811198 86.32072688 -63.29690443 95.44963973 -63.1953125 107.90625 C-63.19329834 109.07768555 -63.19128418 110.24912109 -63.18920898 111.45605469 C-63.17879759 115.80407667 -63.15087525 120.15204254 -63.125 124.5 C-63.08375 134.235 -63.0425 143.97 -63 154 C-41.88 154 -20.76 154 1 154 C1.061875 140.201875 1.061875 140.201875 1.125 126.125 C1.14320801 123.24023926 1.16141602 120.35547852 1.18017578 117.38330078 C1.18602262 115.07063991 1.19111772 112.75797696 1.1953125 110.4453125 C1.20554443 109.26573975 1.21577637 108.08616699 1.22631836 106.87084961 C1.22888496 94.59480936 -0.08893865 83.95450049 -8.75 74.75 C-16.35850209 67.51125689 -24.02656457 65.6268573 -34.3515625 65.72265625 C-42.5487498 66.34578291 -49.57878719 69.79675405 -55 76 Z " fill="#000102" transform="translate(242,69)"/>
<path d="M0 0 C10.04883529 -0.04230644 20.09766878 -0.07457999 30.14656246 -0.09937394 C36.05838058 -0.11443718 41.97007489 -0.1346474 47.88182157 -0.16778237 C53.35185125 -0.1983329 58.82174183 -0.21478022 64.29185218 -0.22042304 C66.28312937 -0.2249846 68.27440285 -0.23470251 70.26562566 -0.25010949 C85.35346244 -0.36277795 99.39352403 0.13888494 110.87970632 11.26798385 C121.04558642 22.97471824 121.2242645 35.91687174 121.14923757 50.6390776 C121.15193873 52.52132247 121.15582631 54.40356597 121.16083425 56.28580612 C121.16669998 60.21261895 121.15826142 64.13906549 121.13947195 68.06583542 C121.11668421 73.06876172 121.1298231 78.07082932 121.1537618 83.07372421 C121.16829936 86.95510064 121.16357755 90.83627753 121.15325063 94.71766037 C121.15060527 96.56102488 121.15377485 98.40440823 121.16316885 100.2477507 C121.22079642 114.72960153 120.19551319 127.12905624 109.61798757 138.0765776 C99.33767241 148.1983857 86.0553448 148.57682855 72.48218435 148.49649948 C70.36810575 148.47118774 68.25403113 148.44554194 66.13996023 148.41959518 C63.88342882 148.40698885 61.62688618 148.3962728 59.37033743 148.38729233 C54.53420642 148.36458311 49.69837333 148.32971966 44.86239141 148.285541 C37.2143581 148.21685586 29.56640193 148.18238031 21.91812795 148.15364975 C11.19707268 148.11068301 0.47613723 148.05867355 -10.2448054 147.99381393 C-10.9234591 147.98971575 -11.6021128 147.98561757 -12.30133177 147.98139521 C-19.88087252 147.93525661 -27.46037416 147.88497384 -35.03984934 147.82908005 C-35.72243208 147.82405206 -36.40501482 147.81902408 -37.10828189 147.81384374 C-37.7902746 147.80881719 -38.47226731 147.80379063 -39.17492646 147.79861176 C-40.55043294 147.78847858 -41.92593946 147.77835066 -43.30144602 147.76822799 C-43.98108178 147.76321928 -44.66071753 147.75821056 -45.36094831 147.75305007 C-56.69875242 147.67022208 -68.03645626 147.61493628 -79.37452763 147.58063948 C-86.97746687 147.55604153 -94.57929178 147.49954307 -102.1818369 147.41925722 C-106.90649674 147.3766139 -111.63090517 147.36319092 -116.35574061 147.35799736 C-118.54597108 147.34968278 -120.73619403 147.32930569 -122.92618662 147.29597229 C-125.91704113 147.25215535 -128.9049316 147.25161877 -131.89602 147.26171249 C-132.76168066 147.23859412 -133.62734132 147.21547575 -134.51923412 147.19165683 C-139.34504289 147.26024135 -141.78261818 147.96742439 -145.2444182 151.42828792 C-146.29108448 152.64369469 -147.33695968 153.85978318 -148.38201243 155.0765776 C-149.59263059 156.16016452 -150.82013792 157.22541486 -152.06951243 158.2640776 C-157.80913979 163.2185151 -163.05891265 168.68447468 -168.38201243 174.0765776 C-180.39545608 186.24575108 -180.39545608 186.24575108 -186.74627024 191.66349167 C-188.86007356 193.48956534 -190.81451214 195.44564874 -192.75701243 197.4515776 C-197.13642195 201.9705699 -197.13642195 201.9705699 -201.31951243 202.3265776 C-204.38201243 202.0765776 -204.38201243 202.0765776 -206.05213267 200.88057846 C-207.83345799 198.46418526 -207.74428513 196.94945372 -207.7225886 193.96256393 C-207.72236201 192.92171142 -207.72213541 191.88085891 -207.72190195 190.80846542 C-207.7064181 189.68651275 -207.69093424 188.56456009 -207.67498118 187.40860885 C-207.67073633 186.25865936 -207.66649149 185.10870987 -207.66211802 183.92391342 C-207.64530432 180.24539819 -207.6076462 176.56742768 -207.56951243 172.8890776 C-207.55446911 170.39754905 -207.5407801 167.90601192 -207.5284968 165.41446823 C-207.49539195 159.30165167 -207.44516548 153.18915355 -207.38201243 147.0765776 C-208.48077708 147.09752487 -209.57954172 147.11847214 -210.71160227 147.14005417 C-214.83028217 147.21304588 -218.94890619 147.25859 -223.06804758 147.29630417 C-224.84288532 147.316286 -226.61765836 147.34348116 -228.39226633 147.37833542 C-247.39699033 147.74195985 -247.39699033 147.74195985 -255.38201243 143.0765776 C-256.27275461 142.56997604 -257.1634968 142.06337448 -258.08123118 141.54142135 C-266.04109704 135.42686821 -271.03575128 127.84645523 -273.38201243 118.0765776 C-273.65785158 115.13863444 -273.675918 112.22014604 -273.67253977 109.2706694 C-273.67925699 108.41764236 -273.68597422 107.56461532 -273.692895 106.68573898 C-273.7118002 103.88236454 -273.71579542 101.07923047 -273.71794993 98.27579635 C-273.7243831 96.31435434 -273.73111184 94.35291327 -273.73812205 92.39147323 C-273.75007616 88.2852647 -273.75380479 84.17914019 -273.7526179 80.07291549 C-273.75241483 74.83094766 -273.77971288 69.58952269 -273.81416231 64.34768337 C-273.83648299 60.29742378 -273.84045385 56.24729377 -273.83939844 52.19697899 C-273.84174677 50.26541979 -273.85052667 48.33385661 -273.86606318 46.40235847 C-273.96493112 32.84164281 -273.35213878 21.3449556 -263.38201243 11.0765776 C-255.14568903 4.19454899 -247.25881727 0.61161996 -236.56015879 0.67785019 C-235.7059361 0.67120336 -234.85171341 0.66455653 -233.97160518 0.65770829 C-231.12285161 0.6391378 -228.27452061 0.6416806 -225.4257136 0.64420456 C-223.37156437 0.63517665 -221.31742052 0.62484692 -219.26328379 0.61332077 C-213.66169632 0.58565456 -208.06021063 0.57643871 -202.45856363 0.5704667 C-196.48145434 0.56098094 -190.5044167 0.53471152 -184.52735239 0.51046127 C-174.38443498 0.47160445 -164.24153569 0.4434988 -154.09856516 0.42301315 C-140.21184072 0.3949659 -126.32522421 0.34925804 -112.43856508 0.29890603 C-90.13163926 0.21860679 -67.82475759 0.163062 -45.51771623 0.12785119 C-30.34503621 0.10380563 -15.17256562 0.0643238 0 0 Z M-254.75701243 22.5140776 C-255.2184968 23.06966354 -255.67998118 23.62524948 -256.15544993 24.19767135 C-259.34656563 29.08597279 -259.67515922 33.62051318 -259.65667063 39.33585495 C-259.66178156 40.15439453 -259.66689249 40.97293411 -259.6721583 41.81627792 C-259.6860283 44.51509858 -259.68509935 47.21366309 -259.68279368 49.9125151 C-259.6866823 51.79432148 -259.69101732 53.67612699 -259.69577891 55.55793136 C-259.70323575 59.50037364 -259.70295392 63.44272637 -259.69768625 67.38517135 C-259.6918953 72.42787286 -259.7088162 77.47020663 -259.73203093 82.51284736 C-259.74679102 86.39913955 -259.74763682 90.28534368 -259.7445212 94.17165893 C-259.74503336 96.03032672 -259.75025137 97.88899956 -259.76033312 99.74764007 C-259.77272306 102.35150397 -259.76589049 104.95465796 -259.75432688 107.5585112 C-259.76197062 108.32030182 -259.76961436 109.08209244 -259.77748972 109.86696762 C-259.7000637 117.78804438 -256.81666837 123.38312852 -251.38201243 129.0765776 C-247.02917175 132.15541613 -243.32018719 133.18816299 -238.0441218 133.23429245 C-237.19644236 133.24455459 -236.34876292 133.25481674 -235.47539622 133.26538986 C-234.11432749 133.27634186 -234.11432749 133.27634186 -232.72576243 133.2875151 C-230.79736835 133.31557222 -228.86898304 133.34423659 -226.94060618 133.3734526 C-223.90561411 133.41477848 -220.87078765 133.45167476 -217.83562571 133.47794479 C-214.90283031 133.50551849 -211.97077389 133.55137468 -209.03826243 133.6000151 C-207.6771937 133.60489441 -207.6771937 133.60489441 -206.28862864 133.60987228 C-202.8670714 133.67674086 -200.03772157 133.83352592 -196.81658274 135.02750534 C-194.39348577 138.48854225 -194.77838118 142.21812016 -194.77263743 146.33829635 C-194.75610117 147.24408935 -194.73956492 148.14988235 -194.72252756 149.08312362 C-194.67393372 151.97684313 -194.65265158 154.87003673 -194.63201243 157.7640776 C-194.60386224 159.72569277 -194.57393616 161.68728331 -194.54216868 163.64884323 C-194.46817178 168.45804474 -194.41866682 173.26695235 -194.38201243 178.0765776 C-190.62890361 176.51891833 -188.2878333 174.19858321 -185.46013743 171.31485885 C-184.99645762 170.84597748 -184.53277781 170.3770961 -184.05504709 169.89400619 C-182.57584218 168.39706162 -181.10348542 166.89362011 -179.63201243 165.3890776 C-177.70321936 163.42336523 -175.77115385 161.46095767 -173.83513743 159.50235885 C-173.12975336 158.78859085 -173.12975336 158.78859085 -172.41011912 158.06040329 C-169.12233693 154.75844993 -165.71113448 151.66286757 -162.1691218 148.63883346 C-159.30485963 146.13495182 -156.66106005 143.42456153 -154.00701243 140.7015776 C-147.58156031 134.11668499 -147.58156031 134.11668499 -142.48538786 133.94629234 C-140.74597322 133.93858792 -139.00652898 133.9364906 -137.26709849 133.9385466 C-136.31069379 133.93572532 -135.3542891 133.93290404 -134.36890244 133.92999727 C-131.14385357 133.92162227 -127.91883889 133.92031053 -124.69378 133.91886276 C-122.38960014 133.91419663 -120.0854212 133.9090534 -117.78124338 133.90346664 C-112.80865222 133.89216874 -107.83606712 133.8837427 -102.86346728 133.87734741 C-95.00200631 133.86668693 -87.14058867 133.84644704 -79.27915293 133.82422775 C-76.59003659 133.81674761 -73.90092007 133.8093339 -71.2118035 133.80194038 C-70.53970701 133.80008982 -69.86761052 133.79823925 -69.17514748 133.79633261 C-61.52104344 133.77539708 -53.8669347 133.75657376 -46.21282297 133.73868698 C-45.51299568 133.7370488 -44.81316838 133.73541061 -44.0921342 133.73372279 C-32.7579431 133.70745287 -21.42374874 133.68880179 -10.0895401 133.67209508 C1.54633382 133.65466673 13.18214084 133.62562288 24.81796432 133.58720571 C31.35131658 133.56611753 37.88457773 133.55067588 44.41796583 133.54839844 C50.56488678 133.5462533 56.71161812 133.5303973 62.85848135 133.50400871 C65.11472491 133.49680887 67.37099143 133.49471805 69.62724394 133.49811119 C72.70777257 133.50200388 75.78769505 133.48755715 78.86815542 133.46857589 C79.76077414 133.47410559 80.65339286 133.47963529 81.57306063 133.48533255 C89.27381089 133.40344483 95.26363203 131.31229387 100.92684072 125.90288681 C108.39387262 117.83906368 107.2207793 106.8681506 107.18439382 96.61173385 C107.18963703 94.81008978 107.19591606 93.00844844 107.20317739 91.20681137 C107.21355037 87.44199536 107.20906512 83.67755805 107.19440359 79.91275924 C107.17722242 75.11006227 107.20071883 70.30856252 107.23589319 65.50599903 C107.25795051 61.78852942 107.25640561 58.0713426 107.24812788 54.35382789 C107.24731288 52.5841574 107.25408917 50.8144652 107.2688989 49.04485649 C107.38416049 33.9283603 107.38416049 33.9283603 99.83333486 21.1570372 C94.86932152 16.41042657 89.55671426 14.82892623 82.71708006 14.8193087 C81.55358003 14.81285981 80.39007999 14.80641091 79.19132239 14.7997666 C77.28803114 14.80441241 77.28803114 14.80441241 75.34628958 14.80915207 C73.97737652 14.80541387 72.60846559 14.80081168 71.23955804 14.79542142 C67.48321199 14.78319705 63.72695503 14.78345121 59.97059363 14.78581017 C55.91732453 14.78621848 51.86408395 14.77517796 47.81082815 14.76569504 C39.87202756 14.74908761 31.93325666 14.74358562 23.99444015 14.74247028 C17.54155781 14.74151977 11.08868527 14.73740933 4.63580602 14.73106903 C-13.66028418 14.71345803 -31.95635093 14.70423004 -50.25244968 14.70572998 C-51.238638 14.70580989 -52.22482633 14.7058898 -53.24089915 14.70597214 C-54.22829176 14.7060539 -55.21568437 14.70613566 -56.23299797 14.7062199 C-72.23837193 14.70703296 -88.24365182 14.68788982 -104.24899857 14.6596954 C-120.68413422 14.63097234 -137.11922397 14.61715476 -153.55438536 14.61888295 C-162.78113638 14.61954701 -172.00778875 14.6140477 -181.23451716 14.59252685 C-189.089539 14.57432276 -196.94441748 14.56996142 -204.79945128 14.5835457 C-208.80656172 14.59007902 -212.81339703 14.59017957 -216.82048136 14.5728392 C-220.49083456 14.55711942 -224.16069425 14.55996045 -227.83103533 14.57740746 C-229.78332507 14.58193205 -231.73563006 14.56681148 -233.68786043 14.55092818 C-242.01663536 14.61647421 -249.21262098 15.57557617 -254.75701243 22.5140776 Z " fill="#030301" transform="translate(391.3820124268532,271.923422396183)"/>
<path d="M0 0 C18.5873763 15.02010206 31.0900037 35.53367113 34.09375 59.5 C34.17610691 61.8444809 34.21164396 64.19094233 34.20727539 66.53686523 C34.20742142 67.20113022 34.20756744 67.8653952 34.2077179 68.54978943 C34.20702785 70.71942549 34.19927854 72.88897291 34.19140625 75.05859375 C34.18953884 76.57316542 34.18811646 78.08773769 34.18711853 79.60231018 C34.1833188 83.56918027 34.17351051 87.53601316 34.16241455 91.50286865 C34.15033676 96.27287782 34.14578607 101.0428995 34.13996124 105.81291962 C34.13029718 113.0419722 34.1111229 120.27094333 34.09375 127.5 C20.56375 127.5 7.03375 127.5 -6.90625 127.5 C-6.94492187 120.56226563 -6.94492187 120.56226563 -6.984375 113.484375 C-7.00958059 110.53119679 -7.03594173 107.57811727 -7.06640625 104.625 C-7.11451354 99.95116985 -7.15864253 95.27756851 -7.17724609 90.60351562 C-7.19253725 86.82956514 -7.22719806 83.05621872 -7.27455902 79.28253937 C-7.28924588 77.85231059 -7.29728361 76.42199552 -7.29813385 74.99169159 C-7.31600436 59.98494518 -10.67471873 48.52085618 -20.90234375 37.3125 C-30.45583957 28.05700313 -41.8911937 24.2119298 -54.96142578 24.18310547 C-66.64137288 24.4119025 -75.9930408 29.27437327 -84.59375 36.875 C-92.59839871 45.961358 -97.94928494 54.77065527 -98.11157227 67.10449219 C-98.12147186 67.75856552 -98.13137146 68.41263885 -98.14157104 69.08653259 C-98.17305851 71.23994374 -98.19789272 73.39337692 -98.22265625 75.546875 C-98.24323681 77.04332032 -98.26423357 78.53975996 -98.28562927 80.03619385 C-98.34073618 83.96852009 -98.39019547 87.90089781 -98.43847656 91.83331299 C-98.49762338 96.5549226 -98.56378855 101.27643845 -98.62877655 105.99797058 C-98.72664283 113.1652563 -98.8155967 120.33260307 -98.90625 127.5 C-112.43625 127.5 -125.96625 127.5 -139.90625 127.5 C-140.06668524 110.71223503 -140.06668524 110.71223503 -140.1015625 103.44726562 C-140.12529277 98.52789628 -140.15307999 93.60883016 -140.20800781 88.68969727 C-140.25210234 84.71498274 -140.27551796 80.74059422 -140.28575897 76.76565361 C-140.29303826 75.26409218 -140.30724484 73.76254456 -140.32917023 72.26112556 C-140.52158565 58.51313576 -138.88317673 44.38018146 -132.15625 32.125 C-131.81480957 31.47345947 -131.47336914 30.82191895 -131.12158203 30.15063477 C-127.91909734 24.19928964 -124.12203612 18.7786644 -119.90625 13.5 C-119.4628125 12.89285156 -119.019375 12.28570312 -118.5625 11.66015625 C-90.53183013 -24.66007148 -34.90760573 -25.57586954 0 0 Z " fill="#22A6FC" transform="translate(263.90625,96.5)"/>
<path d="M0 0 C0.5986084 0.31936523 1.1972168 0.63873047 1.81396484 0.96777344 C41.67863801 22.37235402 73.13496311 57.06070156 92 98 C92.53109375 99.134375 93.0621875 100.26875 93.609375 101.4375 C96.61249539 108.12486088 99.06868596 114.90107466 101.3125 121.875 C101.69462646 123.05219604 101.69462646 123.05219604 102.08447266 124.25317383 C102.32085449 125.01267334 102.55723633 125.77217285 102.80078125 126.5546875 C103.11269409 127.55218018 103.11269409 127.55218018 103.4309082 128.56982422 C104.23928848 132.02182648 104.59777808 135.47772807 105 139 C106.28165039 138.98428955 107.56330078 138.9685791 108.88378906 138.95239258 C113.63974725 138.89808444 118.39567802 138.86364658 123.15185547 138.83520508 C125.21017059 138.8201205 127.26845358 138.79965013 129.32666016 138.77368164 C132.28556244 138.73728415 135.24403967 138.72027034 138.203125 138.70703125 C139.58301605 138.68380547 139.58301605 138.68380547 140.99078369 138.66011047 C147.3483943 138.65843652 147.3483943 138.65843652 150.55371094 140.33862305 C152.72773085 142.83595686 152.93448787 144.72439328 153 148 C150.7087518 152.6307332 147.27761674 156.29191405 143.875 160.125 C139.92051783 164.62786192 136.01555104 169.14880516 132.25 173.8125 C128.72969059 178.16149539 125.03938752 182.31233522 121.26953125 186.4453125 C118.06861502 190.04840925 115.05390977 193.79238232 112.04296875 197.5546875 C106.77488977 203.86026578 106.77488977 203.86026578 102.1875 204.6875 C97.72290112 204.42390745 95.73044963 202.50111228 92.83984375 199.25 C92.23269531 198.5075 91.62554687 197.765 91 197 C90.30003906 196.154375 89.60007812 195.30875 88.87890625 194.4375 C87.35097224 192.57326163 85.83168594 190.70190812 84.3203125 188.82421875 C82.11671594 186.14206334 79.83956175 183.56373579 77.5 181 C73.58720883 176.70679858 69.91845843 172.25630493 66.26953125 167.73828125 C63.98269495 164.97912076 61.60794024 162.32978092 59.1875 159.6875 C51 150.59665061 51 150.59665061 51 145.3125 C52.14209665 141.52930486 52.59730399 140.83861974 56 139 C58.69199145 138.74355859 61.14305409 138.64953248 63.828125 138.70703125 C64.95163361 138.71339851 64.95163361 138.71339851 66.09783936 138.71989441 C68.48226375 138.73664254 70.86583253 138.77428603 73.25 138.8125 C74.86977943 138.82755191 76.48957215 138.84123943 78.109375 138.85351562 C82.07324466 138.8865332 86.03647743 138.93828754 90 139 C82.42789242 115.90521393 82.42789242 115.90521393 72 94 C71.5359375 93.07574219 71.071875 92.15148437 70.59375 91.19921875 C55.17900421 60.95226117 29.43442888 36.80816035 1 19 C0.10087891 18.43200684 0.10087891 18.43200684 -0.81640625 17.85253906 C-44.01552935 -9.04194741 -97.72921244 -15.01716696 -146.75 -3.75 C-181.39972686 4.72439989 -211.35545861 22.50684619 -237 47 C-237.93714844 47.88429688 -238.87429687 48.76859375 -239.83984375 49.6796875 C-246.64876209 56.26896331 -252.50420208 63.31414728 -258 71 C-258.61657471 71.85803223 -258.61657471 71.85803223 -259.24560547 72.73339844 C-281.19761436 103.60850036 -293.53747221 140.08604407 -295.2578125 177.92578125 C-295.29156982 178.66449463 -295.32532715 179.40320801 -295.36010742 180.16430664 C-295.43167866 182.09311768 -295.46555741 184.02322811 -295.49609375 185.953125 C-296.10288989 189.62212493 -297.03431116 190.81419714 -300 193 C-303.84395926 193.54913704 -305.99082021 193.72675336 -309.19140625 191.421875 C-315.32013748 183.21493469 -310.32517375 163.6883223 -308.96875 154.12109375 C-301.96874254 108.29563172 -280.69690338 69.33816699 -249 36 C-248.08347656 35.02160156 -248.08347656 35.02160156 -247.1484375 34.0234375 C-242.1760193 28.86249159 -236.63519172 24.41352735 -231 20 C-230.46407227 19.57702637 -229.92814453 19.15405273 -229.37597656 18.71826172 C-164.36195827 -32.1860902 -72.37498813 -39.12682447 0 0 Z " fill="#000000" transform="translate(311,31)"/>
<path d="M0 0 C2.140625 1.359375 2.140625 1.359375 4 4 C4.64145849 7.57514303 4.6968923 11.12419253 4.75 14.75 C4.77964844 15.73355469 4.80929688 16.71710938 4.83984375 17.73046875 C4.91042411 20.15372776 4.96317701 22.57603154 5 25 C5.72533936 24.53775024 5.72533936 24.53775024 6.46533203 24.06616211 C8.67454668 22.6721334 10.89917889 21.30484241 13.125 19.9375 C13.88554687 19.45216797 14.64609375 18.96683594 15.4296875 18.46679688 C21.17992121 14.97204277 21.17992121 14.97204277 25.4375 15.1171875 C28.1982805 16.06831005 29.4580341 16.51572161 31 19 C31.5 21.875 31.5 21.875 31 25 C26.93185219 30.66634874 20.09729881 33.87479662 14 37 C13.34 37 12.68 37 12 37 C12 37.66 12 38.32 12 39 C12.68578125 39.24621094 13.3715625 39.49242187 14.078125 39.74609375 C17.50597004 41.2171342 20.60044618 43.0842971 23.75 45.0625 C24.33910156 45.42666016 24.92820313 45.79082031 25.53515625 46.16601562 C29.84776311 48.84776311 29.84776311 48.84776311 31 50 C31.36273601 53.84500171 31.51362559 56.17819906 29.4375 59.5 C25.9048396 61.67394486 24.00534184 60.9158556 20 60 C17.21574655 58.68551012 14.65251684 57.09724582 12.0625 55.4375 C11.37865234 55.01275391 10.69480469 54.58800781 9.99023438 54.15039062 C8.3201222 53.11095018 6.65908782 52.05694784 5 51 C4.98541748 51.61520508 4.97083496 52.23041016 4.95581055 52.86425781 C4.88119423 55.66012854 4.7845802 58.45482287 4.6875 61.25 C4.66494141 62.21808594 4.64238281 63.18617188 4.61914062 64.18359375 C4.58369141 65.11816406 4.54824219 66.05273438 4.51171875 67.015625 C4.48553467 67.87446289 4.45935059 68.73330078 4.43237305 69.61816406 C3.90863227 72.50332216 3.04364153 73.91158989 1 76 C-2.7157441 76.54047187 -4.96940407 76.63477413 -8.20703125 74.640625 C-11.05923503 70.43999372 -10.42121371 66.19544215 -10.25 61.25 C-10.23195312 60.26644531 -10.21390625 59.28289062 -10.1953125 58.26953125 C-10.14824126 55.84536217 -10.08250742 53.42317941 -10 51 C-10.51385254 51.3081665 -11.02770508 51.61633301 -11.55712891 51.93383789 C-13.90317559 53.32757865 -16.26354046 54.69505017 -18.625 56.0625 C-19.43324219 56.54783203 -20.24148437 57.03316406 -21.07421875 57.53320312 C-27.16064508 61.02176456 -27.16064508 61.02176456 -31.46484375 60.91015625 C-34 60 -34 60 -35.9375 58.375 C-37.53381992 54.80675547 -37.05220933 52.7367434 -36 49 C-33.80256169 46.92548751 -31.2994442 45.62699079 -28.625 44.25 C-27.26095204 43.50900402 -25.89889597 42.76432709 -24.5390625 42.015625 C-23.62954834 41.54044434 -23.62954834 41.54044434 -22.70166016 41.05566406 C-20.84903746 39.90634691 -19.48114791 38.59142811 -18 37 C-18.68578125 36.7525 -19.3715625 36.505 -20.078125 36.25 C-23.49532423 34.78809659 -26.60002454 32.95369265 -29.75 31 C-30.33910156 30.64421875 -30.92820313 30.2884375 -31.53515625 29.921875 C-35.87634967 27.24730066 -35.87634967 27.24730066 -37 25 C-37.375 22.125 -37.375 22.125 -37 19 C-34.875 16.5625 -34.875 16.5625 -32 15 C-26.47755793 15.24080416 -22.661809 17.69182532 -18.125 20.5625 C-17.43664062 20.98724609 -16.74828125 21.41199219 -16.0390625 21.84960938 C-14.35399048 22.8910775 -12.67622969 23.94435916 -11 25 C-10.9906543 24.38479492 -10.98130859 23.76958984 -10.97167969 23.13574219 C-10.91788915 20.33968914 -10.83426181 17.5452938 -10.75 14.75 C-10.72873047 13.29787109 -10.72873047 13.29787109 -10.70703125 11.81640625 C-10.46002818 4.65331734 -10.46002818 4.65331734 -8.140625 1.359375 C-5.18324825 -0.51866717 -3.43753245 -0.57292207 0 0 Z " fill="#040301" transform="translate(224,308)"/>
<path d="M0 0 C2.140625 1.359375 2.140625 1.359375 4 4 C4.64145849 7.57514303 4.6968923 11.12419253 4.75 14.75 C4.77964844 15.73355469 4.80929687 16.71710938 4.83984375 17.73046875 C4.91042411 20.15372776 4.96317701 22.57603154 5 25 C5.72533936 24.53775024 5.72533936 24.53775024 6.46533203 24.06616211 C8.67454668 22.6721334 10.89917889 21.30484241 13.125 19.9375 C13.88554687 19.45216797 14.64609375 18.96683594 15.4296875 18.46679688 C21.17992121 14.97204277 21.17992121 14.97204277 25.4375 15.1171875 C28.1982805 16.06831005 29.4580341 16.51572161 31 19 C31.5 21.875 31.5 21.875 31 25 C26.93185219 30.66634874 20.09729881 33.87479662 14 37 C13.34 37 12.68 37 12 37 C12 37.66 12 38.32 12 39 C12.68578125 39.2475 13.3715625 39.495 14.078125 39.75 C17.49532423 41.21190341 20.60002454 43.04630735 23.75 45 C24.33910156 45.35578125 24.92820312 45.7115625 25.53515625 46.078125 C29.87634967 48.75269934 29.87634967 48.75269934 31 51 C31.38750052 54.56500476 31.39435894 56.38480006 29.4375 59.4375 C27 61 27 61 23.84375 60.8828125 C19.24696387 59.82704658 15.99549175 57.95785683 12.0625 55.4375 C11.37865234 55.01275391 10.69480469 54.58800781 9.99023438 54.15039062 C8.3201222 53.11095018 6.65908782 52.05694784 5 51 C4.98541748 51.61520508 4.97083496 52.23041016 4.95581055 52.86425781 C4.88119423 55.66012854 4.7845802 58.45482287 4.6875 61.25 C4.66494141 62.21808594 4.64238281 63.18617188 4.61914062 64.18359375 C4.58369141 65.11816406 4.54824219 66.05273438 4.51171875 67.015625 C4.48553467 67.87446289 4.45935059 68.73330078 4.43237305 69.61816406 C3.90863227 72.50332216 3.04364153 73.91158989 1 76 C-2.7157441 76.54047187 -4.96940407 76.63477413 -8.20703125 74.640625 C-11.05923503 70.43999372 -10.42121371 66.19544215 -10.25 61.25 C-10.23195313 60.26644531 -10.21390625 59.28289062 -10.1953125 58.26953125 C-10.14824126 55.84536217 -10.08250742 53.42317941 -10 51 C-10.51385254 51.3081665 -11.02770508 51.61633301 -11.55712891 51.93383789 C-13.90317559 53.32757865 -16.26354046 54.69505017 -18.625 56.0625 C-19.43324219 56.54783203 -20.24148438 57.03316406 -21.07421875 57.53320312 C-27.16064508 61.02176456 -27.16064508 61.02176456 -31.46484375 60.91015625 C-34 60 -34 60 -35.9375 58.375 C-37.53381992 54.80675547 -37.05220933 52.7367434 -36 49 C-33.80256169 46.92548751 -31.2994442 45.62699079 -28.625 44.25 C-27.26095204 43.50900402 -25.89889597 42.76432709 -24.5390625 42.015625 C-23.62954834 41.54044434 -23.62954834 41.54044434 -22.70166016 41.05566406 C-20.84903746 39.90634691 -19.48114791 38.59142811 -18 37 C-18.68578125 36.7525 -19.3715625 36.505 -20.078125 36.25 C-23.49532423 34.78809659 -26.60002454 32.95369265 -29.75 31 C-30.33910156 30.64421875 -30.92820312 30.2884375 -31.53515625 29.921875 C-35.87634967 27.24730066 -35.87634967 27.24730066 -37 25 C-37.375 22.125 -37.375 22.125 -37 19 C-34.875 16.5625 -34.875 16.5625 -32 15 C-26.47755793 15.24080416 -22.661809 17.69182532 -18.125 20.5625 C-17.43664062 20.98724609 -16.74828125 21.41199219 -16.0390625 21.84960938 C-14.35399048 22.8910775 -12.67622969 23.94435916 -11 25 C-10.9906543 24.38479492 -10.98130859 23.76958984 -10.97167969 23.13574219 C-10.91788915 20.33968914 -10.83426181 17.5452938 -10.75 14.75 C-10.72873047 13.29787109 -10.72873047 13.29787109 -10.70703125 11.81640625 C-10.46002818 4.65331734 -10.46002818 4.65331734 -8.140625 1.359375 C-5.18324825 -0.51866717 -3.43753245 -0.57292207 0 0 Z " fill="#040301" transform="translate(411,308)"/>
<path d="M0 0 C2.55611431 2.18513843 3.84941007 3.91133362 4.31616211 7.28564453 C4.39377267 9.97224214 4.34870092 12.62669613 4.25 15.3125 C4.23195313 16.24384766 4.21390625 17.17519531 4.1953125 18.13476562 C4.14834888 20.42424197 4.08269475 22.71158184 4 25 C4.51385254 24.6918335 5.02770508 24.38366699 5.55712891 24.06616211 C7.90317559 22.67242135 10.26354046 21.30494983 12.625 19.9375 C13.43324219 19.45216797 14.24148438 18.96683594 15.07421875 18.46679688 C21.15743649 14.98007451 21.15743649 14.98007451 25.46875 15.08203125 C28.55056218 16.19966375 29.53765861 17.07531722 31 20 C31.625 22.375 31.625 22.375 31 25 C26.44058392 30.55255622 19.39400786 34.00976747 13 37 C12.34 37 11.68 37 11 37 C11 37.66 11 38.32 11 39 C11.87269531 39.25910156 12.74539063 39.51820313 13.64453125 39.78515625 C17.01883063 41.00681761 19.68302735 42.48899263 22.6875 44.4375 C23.61949219 45.03433594 24.55148437 45.63117188 25.51171875 46.24609375 C29.47441658 49.03926694 29.47441658 49.03926694 31 51 C30.93273404 54.76689361 30.82032733 57.09178045 28.25 59.9375 C25.55917003 61.20816971 23.95594559 61.22896813 21 61 C18.87182617 60.08203125 18.87182617 60.08203125 16.79296875 58.8125 C16.04208984 58.36132812 15.29121094 57.91015625 14.51757812 57.4453125 C13.74865234 56.96835937 12.97972656 56.49140625 12.1875 56 C11.00510742 55.28457031 11.00510742 55.28457031 9.79882812 54.5546875 C7.85970104 53.37945896 5.92732393 52.19445162 4 51 C4.02094727 51.57967529 4.04189453 52.15935059 4.06347656 52.7565918 C4.14696807 55.40004924 4.19876153 58.0432288 4.25 60.6875 C4.30027344 62.05551758 4.30027344 62.05551758 4.3515625 63.45117188 C4.41428632 67.76343461 4.39637251 70.31174534 2.20703125 74.11328125 C0 76 0 76 -3.5625 76.5 C-7 76 -7 76 -8.6965332 74.80151367 C-10.47956046 72.33720235 -10.34305274 70.69751514 -10.29296875 67.67578125 C-10.28330078 66.64775391 -10.27363281 65.61972656 -10.26367188 64.56054688 C-10.23853516 63.48869141 -10.21339844 62.41683594 -10.1875 61.3125 C-10.16719727 59.68731445 -10.16719727 59.68731445 -10.14648438 58.02929688 C-10.11110643 55.35236595 -10.06174189 52.67643162 -10 50 C-11.32064453 50.81404297 -11.32064453 50.81404297 -12.66796875 51.64453125 C-13.84113653 52.3672026 -15.01431414 53.08985801 -16.1875 53.8125 C-16.76564453 54.16892578 -17.34378906 54.52535156 -17.93945312 54.89257812 C-19.62496993 55.93055175 -21.31246025 56.96531853 -23 58 C-23.88945312 58.58394531 -24.77890625 59.16789062 -25.6953125 59.76953125 C-29.08234091 61.57785998 -31.37221757 60.95828215 -35 60 C-37.48836965 56.26744552 -37.54226552 54.41559065 -37 50 C-33.61361414 46.85461605 -29.79675254 44.56631079 -25.8125 42.25 C-24.76707031 41.63640625 -23.72164063 41.0228125 -22.64453125 40.390625 C-20 39 -20 39 -18 39 C-18 38.34 -18 37.68 -18 37 C-19.04607422 36.61328125 -19.04607422 36.61328125 -20.11328125 36.21875 C-23.3056352 34.87096322 -26.19874628 33.25241212 -29.1875 31.5 C-30.75564453 30.58734375 -30.75564453 30.58734375 -32.35546875 29.65625 C-35 28 -35 28 -37 26 C-37.54587156 19.99541284 -37.54587156 19.99541284 -35.9375 17.0625 C-32.87185346 15.381339 -30.45546164 15.72173143 -27 16 C-24.4052581 17.02125007 -22.10977875 18.39886134 -19.75 19.875 C-19.13898438 20.23980469 -18.52796875 20.60460937 -17.8984375 20.98046875 C-15.21940518 22.58905803 -12.60007876 24.26661416 -10 26 C-10.01571045 25.31897217 -10.0314209 24.63794434 -10.04760742 23.9362793 C-10.10993222 20.85343719 -10.14898258 17.77072756 -10.1875 14.6875 C-10.21263672 13.61564453 -10.23777344 12.54378906 -10.26367188 11.43945312 C-10.27333984 10.41142578 -10.28300781 9.38339844 -10.29296875 8.32421875 C-10.3086792 7.37635498 -10.32438965 6.42849121 -10.34057617 5.4519043 C-10 3 -10 3 -8.6965332 1.19848633 C-5.78332788 -0.85949683 -3.42890329 -0.48124958 0 0 Z " fill="#050301" transform="translate(318,308)"/>
<path d="M0 0 C18.48 0 36.96 0 56 0 C52.00209452 5.33054064 48.01832096 10.40380102 43.625 15.375 C38.58451696 21.12967772 33.70165938 26.96312618 29 33 C25.23521141 31.74507047 24.30619333 30.16902481 21.875 27.0625 C18.78529109 23.18906005 15.6431025 19.41873473 12.3125 15.75 C11.57773437 14.94046875 10.84296875 14.1309375 10.0859375 13.296875 C9.05339844 12.15992188 9.05339844 12.15992188 8 11 C2 4.33333333 2 4.33333333 2 2 C1.34 2 0.68 2 0 2 C0 1.34 0 0.68 0 0 Z " fill="#F5AF49" transform="translate(385,184)"/>
</svg>
